<svg width="247.05" height="112.89" viewBox="0 0 247.05 112.89" xmlns="http://www.w3.org/2000/svg"><g id="svgGroup" stroke-linecap="round" fill-rule="evenodd" font-size="9pt" stroke="#000" stroke-width="0.25mm" fill="none" style="stroke:#000;stroke-width:0.25mm;fill:none"><path d="M 37.8 23.4 L 36 22.95 A 95.949 95.949 0 0 1 34.171 32.31 A 105.937 105.937 0 0 1 33.825 33.675 Q 32.4 39.15 30.675 44.625 Q 28.95 50.1 27.3 55.725 Q 25.65 61.35 24.3 66.9 Q 23.1 72.15 22.5 77.85 Q 21.9 83.55 22.05 89.325 Q 22.2 95.1 23.4 100.575 Q 24.6 106.05 27 110.7 Q 27.377 111.58 27.333 111.722 A 0.033 0.033 0 0 1 27.3 111.75 A 0.956 0.956 0 0 1 27.131 111.736 Q 27.039 111.719 26.966 111.683 A 0.445 0.445 0 0 1 26.85 111.6 L 26.55 111.3 A 34.122 34.122 0 0 1 20.865 102.006 A 32.183 32.183 0 0 1 20.325 100.575 Q 18.3 94.8 17.775 88.65 A 59.817 59.817 0 0 1 17.559 83.56 A 62.212 62.212 0 0 1 18 76.2 Q 18.75 69.9 20.1 63.9 Q 22.65 52.8 26.1 42.525 A 246.954 246.954 0 0 0 31.334 24.831 A 225.194 225.194 0 0 0 31.95 22.35 A 4089.166 4089.166 0 0 0 23.231 20.906 A 3343.551 3343.551 0 0 0 15.075 19.575 A 47.702 47.702 0 0 0 9.487 18.994 Q 5.041 18.805 0.994 19.546 A 34.09 34.09 0 0 0 0.45 19.65 Q 0.117 19.65 0.03 19.568 A 0.091 0.091 0 0 1 0 19.5 A 0.606 0.606 0 0 1 0.014 19.364 Q 0.033 19.283 0.077 19.226 A 0.305 0.305 0 0 1 0.225 19.125 A 1.022 1.022 0 0 0 0.454 19.017 A 0.866 0.866 0 0 0 0.6 18.9 Q 5.7 15.9 11.475 15.6 Q 16.721 15.327 22.338 15.983 A 73.711 73.711 0 0 1 23.475 16.125 Q 29.7 16.95 36.225 18.225 Q 42.75 19.5 49.35 19.65 A 33.907 33.907 0 0 0 50.605 19.673 Q 54.081 19.673 57.825 18.975 Q 62.25 18.15 66.375 16.425 Q 70.5 14.7 73.875 11.85 Q 77.25 9 79.35 5.1 Q 79.605 4.463 79.86 4.367 A 0.255 0.255 0 0 1 79.95 4.35 L 79.95 4.8 L 79.95 5.1 A 26.039 26.039 0 0 1 77.929 10.147 A 20.178 20.178 0 0 1 74.85 14.475 Q 71.4 18.15 66.975 20.4 Q 62.55 22.65 57.525 23.475 A 51.445 51.445 0 0 1 49.182 24.173 A 47.453 47.453 0 0 1 47.7 24.15 A 30.806 30.806 0 0 1 48.039 27.372 Q 48.228 30.823 47.775 34.95 Q 47.1 41.1 45.75 47.4 A 258.96 258.96 0 0 1 43.732 56.108 A 222.178 222.178 0 0 1 42.9 59.325 Q 41.558 64.357 40.697 67.648 A 888.462 888.462 0 0 0 40.5 68.4 A 235.03 235.03 0 0 1 36.598 82.164 A 256.951 256.951 0 0 1 36.3 83.1 Q 33.9 90.6 31.95 96.3 A 9.174 9.174 0 0 1 31.551 97.169 A 7.523 7.523 0 0 1 31.275 97.65 A 2.334 2.334 0 0 1 31.151 97.831 Q 30.849 98.225 30.6 98.1 A 0.374 0.374 0 0 1 30.426 97.91 Q 30.331 97.698 30.373 97.293 A 2.869 2.869 0 0 1 30.375 97.275 A 12.415 12.415 0 0 0 30.445 96.243 A 14.415 14.415 0 0 0 30.45 95.85 Q 30.9 84.6 33.75 73.35 Q 36.6 62.1 39.9 50.7 Q 41.7 44.4 43.425 37.95 A 84.455 84.455 0 0 0 45.433 27.991 A 98.567 98.567 0 0 0 45.9 24.15 A 9.421 9.421 0 0 0 45.374 24.059 Q 45.125 24.024 44.908 24.01 A 4.318 4.318 0 0 0 44.625 24 L 43.35 24 Q 43.35 27 43.125 29.85 Q 42.9 32.7 42.15 35.1 A 196.755 196.755 0 0 1 38.54 47.32 A 227.787 227.787 0 0 1 36.975 51.9 A 302.341 302.341 0 0 1 32.236 64.444 A 265.701 265.701 0 0 1 30.6 68.4 A 13.353 13.353 0 0 1 30.528 68.542 Q 30.353 68.882 29.925 69.684 A 342.023 342.023 0 0 1 29.85 69.825 A 7.533 7.533 0 0 1 29.664 70.156 Q 29.201 70.926 28.95 70.8 A 0.286 0.286 0 0 1 28.693 70.633 Q 28.532 70.348 28.572 69.576 A 7.036 7.036 0 0 1 28.575 69.525 A 20.899 20.899 0 0 1 28.614 68.973 Q 28.685 68.145 28.8 67.8 A 37.823 37.823 0 0 1 28.947 66.39 Q 29.112 65.03 29.4 63.3 A 329.527 329.527 0 0 1 30.31 58.106 A 359.027 359.027 0 0 1 30.375 57.75 Q 30.9 54.9 31.575 52.2 A 121.527 121.527 0 0 1 32.071 50.28 Q 32.323 49.336 32.565 48.505 A 63.326 63.326 0 0 1 32.85 47.55 A 3.515 3.515 0 0 0 32.994 47.205 Q 33.275 46.444 33.733 44.618 A 82.623 82.623 0 0 0 33.75 44.55 A 92.295 92.295 0 0 0 34.211 42.613 Q 34.603 40.884 35.025 38.775 Q 35.7 35.4 36.45 31.35 Q 37.2 27.3 37.8 23.4 Z M 148.847 13.896 A 38.715 38.715 0 0 0 147.3 3 A 0.363 0.363 0 0 1 147.289 2.989 Q 147.18 2.869 147.07 2.55 A 4.542 4.542 0 0 1 147 2.325 Q 146.863 1.846 146.727 1.929 A 0.14 0.14 0 0 0 146.7 1.95 A 0.079 0.079 0 0 0 146.653 1.969 Q 146.536 2.058 146.349 2.567 A 9.781 9.781 0 0 0 146.25 2.85 A 55.567 55.567 0 0 1 146.264 4.113 Q 146.264 5.995 146.138 7.925 A 67.616 67.616 0 0 1 144.975 16.65 A 175.825 175.825 0 0 1 144.216 20.283 A 201.096 201.096 0 0 1 141.375 31.575 A 545.675 545.675 0 0 1 140.825 33.513 A 601.988 601.988 0 0 1 136.65 47.475 Q 134.1 55.65 132.15 63.9 Q 129.9 73.35 129.45 82.8 Q 129 92.25 132.3 100.8 Q 134.4 99 137.025 98.175 Q 139.65 97.35 142.5 97.125 Q 145.35 96.9 148.275 97.05 Q 151.2 97.2 153.9 97.5 A 319.506 319.506 0 0 0 157.467 97.852 A 283.756 283.756 0 0 0 167.775 98.625 Q 174.45 99 181.05 96.9 A 3.849 3.849 0 0 1 181.199 96.83 Q 181.455 96.715 181.8 96.6 A 1.233 1.233 0 0 0 181.965 96.533 Q 182.25 96.389 182.25 96.15 A 0.151 0.151 0 0 0 182.249 96.133 Q 182.217 95.842 181.05 95.55 Q 178.894 95.175 176.269 94.683 A 580.006 580.006 0 0 1 172.95 94.05 A 64.227 64.227 0 0 0 171.073 93.715 A 56.384 56.384 0 0 0 163.95 93 Q 163.35 93 161.325 92.925 A 382.499 382.499 0 0 0 159.993 92.878 Q 158.456 92.827 156.6 92.775 A 61.33 61.33 0 0 0 156.487 92.772 Q 154.962 92.732 153.271 92.764 A 93.636 93.636 0 0 0 150.675 92.85 A 62.38 62.38 0 0 0 148.696 92.973 A 52.697 52.697 0 0 0 144.6 93.45 Q 146.55 87.75 148.65 81.225 Q 150.75 74.7 152.4 68.4 A 140.917 140.917 0 0 1 152.871 66.428 Q 153.722 62.971 155.1 57.975 Q 156.9 51.45 158.25 44.475 A 122.476 122.476 0 0 0 158.869 41.016 A 108.03 108.03 0 0 0 160.05 30.975 Q 160.345 26.693 159.736 23.477 A 16.072 16.072 0 0 0 158.85 20.4 A 1.492 1.492 0 0 1 158.756 20.297 Q 158.55 20.048 158.55 19.8 A 1.01 1.01 0 0 0 158.548 19.736 Q 158.533 19.5 158.4 19.5 Q 158.034 19.5 157.966 19.995 A 1.869 1.869 0 0 0 157.95 20.25 A 85.643 85.643 0 0 1 157.609 25.484 A 72.187 72.187 0 0 1 155.775 36.225 Q 153.9 43.65 151.8 50.7 Q 148.5 61.65 145.8 72.375 Q 143.1 83.1 142.35 93.9 A 13.045 13.045 0 0 0 142.141 93.944 A 11.676 11.676 0 0 0 140.925 94.275 Q 140.419 94.444 140.123 94.57 A 3.285 3.285 0 0 0 139.95 94.65 Q 139.781 94.228 139.707 93.854 A 2.865 2.865 0 0 1 139.65 93.3 A 6.302 6.302 0 0 0 139.645 93.049 Q 139.621 92.471 139.5 91.5 Q 139.5 91.2 139.35 90.225 L 139.05 88.275 A 17.594 17.594 0 0 0 139.03 88.15 Q 138.961 87.717 138.875 87.329 A 10.72 10.72 0 0 0 138.675 86.55 A 7.867 7.867 0 0 0 138.65 86.467 Q 138.442 85.8 138.3 85.8 Q 137.831 85.8 137.546 86.349 A 2.42 2.42 0 0 0 137.4 86.7 Q 137.194 87.319 137.058 88.221 A 18.045 18.045 0 0 0 136.95 89.1 Q 136.874 89.862 136.836 90.72 A 40.293 40.293 0 0 0 136.8 92.475 L 136.8 96.15 A 15.291 15.291 0 0 1 136.791 96.157 Q 136.496 96.378 136.219 96.562 A 9.315 9.315 0 0 1 135.675 96.9 A 1.94 1.94 0 0 0 135.379 97.11 Q 135.193 97.268 135.017 97.489 A 4.21 4.21 0 0 0 134.7 97.95 Q 133.05 90 133.725 82.35 Q 134.4 74.7 136.2 66.9 Q 138.15 58.65 140.85 50.25 Q 143.55 41.85 145.725 33.75 A 107.354 107.354 0 0 0 146.491 30.726 A 95.144 95.144 0 0 0 148.65 17.925 A 41.679 41.679 0 0 0 148.847 13.896 Z M 93.3 42.9 L 93.9 42.3 Q 94.201 41.999 94.502 41.899 A 0.943 0.943 0 0 1 94.8 41.85 L 94.2 43.35 Q 89.85 51.45 86.85 60.075 Q 83.85 68.7 83.25 77.55 A 86.7 86.7 0 0 0 83.112 79.679 Q 82.696 87.641 84.225 90.3 Q 85.725 92.909 87.849 92.285 A 3.947 3.947 0 0 0 88.5 92.025 Q 91.05 90.75 93.975 86.475 Q 96.9 82.2 98.7 77.25 A 462.386 462.386 0 0 1 101.302 70.331 A 515.102 515.102 0 0 1 102.225 67.95 Q 104.1 63.15 105.675 58.275 A 73.614 73.614 0 0 0 107.709 50.648 A 65.286 65.286 0 0 0 108.075 48.75 A 34.663 34.663 0 0 0 108.557 44.732 Q 108.609 43.845 108.609 42.984 A 26.552 26.552 0 0 0 108.45 40.05 A 2.865 2.865 0 0 1 108.459 39.814 Q 108.491 39.432 108.636 39.334 A 0.199 0.199 0 0 1 108.75 39.3 A 0.216 0.216 0 0 1 108.809 39.307 Q 108.9 39.333 108.9 39.45 Q 108.9 39.628 108.953 39.7 A 0.114 0.114 0 0 0 109.05 39.75 A 0.676 0.676 0 0 1 109.128 39.841 Q 109.165 39.896 109.184 39.951 A 0.314 0.314 0 0 1 109.2 40.05 A 22.72 22.72 0 0 1 111.216 46.781 Q 111.394 48.136 111.394 49.501 A 20.991 20.991 0 0 1 111.375 50.4 Q 111.15 55.65 109.575 61.05 A 135.061 135.061 0 0 1 106.359 70.672 A 150.033 150.033 0 0 1 105.825 72.075 Q 103.65 77.7 102.15 83.4 A 57.196 57.196 0 0 0 100.952 89.742 A 64.192 64.192 0 0 0 100.8 90.975 Q 100.35 94.95 100.65 98.85 A 26.282 26.282 0 0 0 102.3 106.275 A 16.311 16.311 0 0 0 104.723 110.59 A 14.874 14.874 0 0 0 106.2 112.2 A 2.637 2.637 0 0 1 106.315 112.322 Q 106.477 112.507 106.497 112.62 A 0.175 0.175 0 0 1 106.5 112.65 Q 106.5 112.939 106.152 112.88 A 0.934 0.934 0 0 1 106.125 112.875 A 2.906 2.906 0 0 1 105.706 112.759 A 2.39 2.39 0 0 1 105.45 112.65 Q 102.6 111.6 100.5 109.2 A 17.201 17.201 0 0 1 97.768 104.901 A 20.37 20.37 0 0 1 97.2 103.5 A 16.112 16.112 0 0 1 95.575 105.584 Q 94.179 107.116 92.175 108.675 A 11.695 11.695 0 0 1 88.076 110.684 Q 85.861 111.3 83.1 111.3 A 14.094 14.094 0 0 1 79.04 110.737 A 11.722 11.722 0 0 1 75.375 108.9 Q 72.15 106.5 70.125 102.9 Q 68.1 99.3 67.275 95.025 A 45.589 45.589 0 0 1 66.539 89.45 A 38.721 38.721 0 0 1 66.45 86.85 Q 66.6 82.05 67.275 77.25 A 79.32 79.32 0 0 1 68.416 70.934 A 67.396 67.396 0 0 1 69.075 68.25 Q 70.2 64.05 71.625 60.75 A 39.959 39.959 0 0 1 72.704 58.444 Q 73.272 57.33 73.851 56.4 A 19.917 19.917 0 0 1 74.55 55.35 A 1.034 1.034 0 0 0 74.74 55.224 Q 74.914 55.081 75.111 54.829 A 4.667 4.667 0 0 0 75.225 54.675 A 1.568 1.568 0 0 1 75.328 54.545 Q 75.639 54.195 75.895 54.445 A 0.558 0.558 0 0 1 75.9 54.45 A 0.194 0.194 0 0 1 75.949 54.538 Q 75.999 54.72 75.825 55.125 A 28.232 28.232 0 0 1 75.717 55.373 Q 75.563 55.725 75.45 55.95 A 221.488 221.488 0 0 0 73.508 62.843 A 256.439 256.439 0 0 0 72.825 65.475 Q 71.55 70.5 70.8 75.6 Q 70.05 80.7 70.05 85.65 Q 70.05 90.6 70.95 94.8 Q 71.55 97.65 73.125 100.05 A 21.821 21.821 0 0 0 74.992 102.513 A 17.708 17.708 0 0 0 76.575 104.1 A 12.525 12.525 0 0 0 79.36 105.975 A 11.254 11.254 0 0 0 80.625 106.5 A 9.683 9.683 0 0 0 82.886 106.998 Q 83.291 107.036 83.694 107.036 A 8.518 8.518 0 0 0 84.9 106.95 A 20.256 20.256 0 0 0 87.414 106.45 Q 88.683 106.107 89.705 105.613 A 8.709 8.709 0 0 0 91.5 104.475 Q 93.75 102.6 94.725 99.975 Q 95.7 97.35 95.925 94.275 Q 96.15 91.2 96.6 88.05 A 8.516 8.516 0 0 1 95.584 90.002 Q 94.83 91.099 93.675 92.175 A 18.091 18.091 0 0 1 90.468 94.578 A 15.997 15.997 0 0 1 89.025 95.325 A 11.519 11.519 0 0 1 86.804 96.085 Q 85.775 96.318 84.774 96.318 A 8.527 8.527 0 0 1 84.225 96.3 A 3.772 3.772 0 0 1 81.324 94.663 A 6.342 6.342 0 0 1 80.7 93.6 A 18.699 18.699 0 0 1 79.109 87.366 A 21.643 21.643 0 0 1 79.05 86.4 A 69.461 69.461 0 0 1 79 83.889 Q 78.994 81.047 79.2 77.85 A 65.552 65.552 0 0 1 80.183 70.096 A 74.402 74.402 0 0 1 80.55 68.25 Q 81.6 63.3 83.4 58.725 Q 85.2 54.15 87.675 50.1 A 39.008 39.008 0 0 1 92.523 43.702 A 35.893 35.893 0 0 1 93.3 42.9 Z M 215.863 104.254 A 0.937 0.937 0 0 0 215.85 104.1 A 0.486 0.486 0 0 0 215.749 103.99 Q 215.445 103.745 214.699 103.943 A 4.534 4.534 0 0 0 214.425 104.025 A 5.17 5.17 0 0 1 212.78 104.293 A 5.475 5.475 0 0 1 212.1 104.25 A 11.003 11.003 0 0 1 210.57 104.088 A 7.812 7.812 0 0 1 205.95 101.55 Q 203.7 99 202.725 95.475 Q 201.75 91.95 201.6 88.35 Q 201.494 85.8 201.613 83.852 A 23.99 23.99 0 0 1 201.75 82.35 A 26.392 26.392 0 0 1 202.047 80.382 Q 202.367 78.683 202.928 76.789 A 53.383 53.383 0 0 1 204.225 72.975 Q 206.25 67.65 209.55 62.775 A 38.913 38.913 0 0 1 209.757 62.472 A 34.709 34.709 0 0 1 217.275 54.525 A 19.231 19.231 0 0 1 217.552 54.317 A 15.54 15.54 0 0 1 226.95 51.15 A 8.873 8.873 0 0 1 228.237 51.24 A 5.846 5.846 0 0 1 232.35 53.7 A 13.768 13.768 0 0 1 233.869 56.513 A 17.619 17.619 0 0 1 234.825 59.85 A 36.078 36.078 0 0 1 235.433 66.512 A 38.907 38.907 0 0 1 235.425 67.275 A 99.553 99.553 0 0 1 235.355 69.568 Q 235.309 70.65 235.24 71.605 A 45.649 45.649 0 0 1 235.05 73.65 A 18.424 18.424 0 0 1 234.857 75.031 A 23.71 23.71 0 0 1 234.45 76.875 A 170.774 170.774 0 0 0 234.019 78.563 A 147.799 147.799 0 0 0 233.625 80.175 A 210.546 210.546 0 0 0 233.588 80.331 Q 233.239 81.802 233.025 82.8 Q 232.8 83.85 233.25 84 Q 233.961 84.118 234.578 83.301 A 4.285 4.285 0 0 0 234.9 82.8 Q 235.369 81.956 235.72 81.23 A 19.991 19.991 0 0 0 236.1 80.4 A 79.096 79.096 0 0 0 236.272 79.958 Q 237.498 76.766 238.2 74.1 A 32.809 32.809 0 0 0 238.77 71.491 A 41.82 41.82 0 0 0 239.25 67.8 A 28.224 28.224 0 0 0 239.421 66.321 Q 239.562 64.737 239.549 62.999 A 42.667 42.667 0 0 0 239.475 60.825 A 26.472 26.472 0 0 0 239.379 59.643 A 23.015 23.015 0 0 0 237.975 53.7 Q 236.7 50.4 234.075 48.15 Q 232.393 46.709 230.004 46.191 A 13.702 13.702 0 0 0 227.1 45.9 A 22.563 22.563 0 0 0 225.478 45.957 A 17.822 17.822 0 0 0 215.7 49.575 Q 210.9 53.25 207.6 58.65 Q 204.3 64.05 202.5 70.2 A 97.159 97.159 0 0 0 202.134 71.484 Q 201.369 74.237 200.855 76.739 A 56.483 56.483 0 0 0 200.1 81.3 Q 199.8 84.15 199.725 88.35 A 33.519 33.519 0 0 0 199.72 88.948 A 30.814 30.814 0 0 0 200.625 96.45 Q 201.6 100.35 204.075 103.2 A 8.338 8.338 0 0 0 208.26 105.778 A 12.547 12.547 0 0 0 211.2 106.2 Q 212.85 106.2 214.425 105.6 A 5.407 5.407 0 0 0 214.773 105.454 Q 215.863 104.949 215.863 104.254 Z M 195.277 73.903 A 51.56 51.56 0 0 0 194.25 80.1 A 89.028 89.028 0 0 0 194.019 83.153 Q 193.66 89.346 194.325 94.125 Q 194.789 97.458 195.68 100.126 A 21.076 21.076 0 0 0 197.325 103.875 A 17.51 17.51 0 0 0 199.024 106.363 A 13.006 13.006 0 0 0 202.725 109.5 A 13.751 13.751 0 0 0 205.481 110.665 A 15.64 15.64 0 0 0 210 111.3 A 24.253 24.253 0 0 0 215.6 110.623 A 31.619 31.619 0 0 0 221.25 108.675 A 32.77 32.77 0 0 0 226.603 105.621 A 41.375 41.375 0 0 0 232.35 100.725 A 44.133 44.133 0 0 0 237.119 94.951 A 57.042 57.042 0 0 0 241.5 87.45 A 51.08 51.08 0 0 0 244.924 78.199 A 70.019 70.019 0 0 0 246.75 68.7 Q 247.088 66.084 247.045 63.303 A 44.272 44.272 0 0 0 246.75 58.875 A 34.084 34.084 0 0 0 246.669 58.231 A 30.192 30.192 0 0 0 244.05 49.275 Q 241.95 44.85 238.05 42 Q 235.673 40.263 232.517 39.585 A 20.771 20.771 0 0 0 228.15 39.15 A 29.271 29.271 0 0 0 226.133 39.219 A 23.514 23.514 0 0 0 214.2 43.275 Q 208.2 47.4 203.925 53.55 Q 199.65 59.7 197.25 66.9 Q 196.031 70.556 195.277 73.903 Z M 242.55 69.75 A 45.215 45.215 0 0 0 242.819 65.051 Q 242.831 63.169 242.7 61.2 Q 242.4 56.7 240.825 52.875 Q 239.25 49.05 236.025 46.5 A 11.337 11.337 0 0 0 231.654 44.412 Q 230.019 44.008 228.103 43.957 A 20.965 20.965 0 0 0 227.55 43.95 A 21.879 21.879 0 0 0 220.425 45.078 A 19.409 19.409 0 0 0 215.25 47.775 Q 210 51.6 206.25 57.225 Q 202.5 62.85 200.4 69.225 Q 198.485 75.04 197.817 79.918 A 42.324 42.324 0 0 0 197.7 80.85 A 70.158 70.158 0 0 0 197.314 84.805 Q 197.065 88.482 197.299 91.562 A 33.489 33.489 0 0 0 197.475 93.3 A 34.391 34.391 0 0 0 198.139 96.974 Q 198.825 99.816 199.95 101.925 A 14.674 14.674 0 0 0 201.781 104.629 A 11.159 11.159 0 0 0 204.525 106.95 Q 207.3 108.6 210.6 108.6 A 14.834 14.834 0 0 0 211.078 108.608 Q 215.515 108.608 220.425 105.975 A 33.246 33.246 0 0 0 226.927 101.364 A 41.483 41.483 0 0 0 230.1 98.175 A 44.4 44.4 0 0 0 234.927 91.613 A 57.898 57.898 0 0 0 237.975 85.875 A 53.574 53.574 0 0 0 241.759 74.34 A 63.795 63.795 0 0 0 242.55 69.75 Z M 210.118 101.047 A 2.32 2.32 0 0 0 211.05 101.25 A 6.377 6.377 0 0 0 212.276 101.127 Q 213.192 100.948 214.165 100.507 A 12.994 12.994 0 0 0 215.925 99.525 A 27.225 27.225 0 0 0 216.415 99.196 A 29.542 29.542 0 0 0 220.875 95.4 Q 223.2 93 225 90.375 Q 226.181 88.652 226.975 87.285 A 24.549 24.549 0 0 0 227.7 85.95 Q 229.5 82.05 230.775 78.225 Q 232.05 74.4 232.65 70.35 Q 232.856 69.112 232.956 67.272 A 60.466 60.466 0 0 0 233.025 65.475 A 27.949 27.949 0 0 0 233.033 64.794 A 26.4 26.4 0 0 0 232.5 59.475 A 15.57 15.57 0 0 0 231.847 57.167 A 11.603 11.603 0 0 0 230.475 54.525 A 4.525 4.525 0 0 0 227.954 52.729 A 6.346 6.346 0 0 0 226.2 52.5 A 11.244 11.244 0 0 0 224.521 52.626 A 12.139 12.139 0 0 0 220.65 53.925 Q 217.95 55.35 215.7 57.525 Q 213.45 59.7 211.95 62.475 A 19.982 19.982 0 0 0 211.424 63.518 A 17.092 17.092 0 0 0 210 68.1 A 24.854 24.854 0 0 0 210.004 68.574 Q 210.033 70.093 210.258 70.5 A 0.233 0.233 0 0 0 210.45 70.65 A 0.171 0.171 0 0 0 210.565 70.576 Q 210.819 70.284 211.277 68.835 A 38.717 38.717 0 0 0 211.5 68.1 Q 212.1 65.85 213.45 63.675 Q 214.8 61.5 216.525 59.7 A 18.812 18.812 0 0 1 217.402 58.842 A 15.945 15.945 0 0 1 220.2 56.775 A 11.123 11.123 0 0 1 220.308 56.714 Q 222.2 55.65 223.95 55.65 Q 226.35 55.65 227.4 59.325 A 12.805 12.805 0 0 1 227.635 60.294 Q 228.206 63.106 227.914 67.391 A 55.677 55.677 0 0 1 227.7 69.75 A 25.574 25.574 0 0 1 227.617 70.412 Q 227.462 71.539 227.175 72.975 A 55.713 55.713 0 0 1 227.163 73.034 A 60.006 60.006 0 0 1 226.275 76.8 Q 225.75 78.75 225.15 80.625 A 33.179 33.179 0 0 1 224.845 81.534 Q 224.398 82.805 223.95 83.7 A 28.62 28.62 0 0 1 223.904 83.792 Q 223.297 84.995 221.925 87.45 Q 220.5 90 218.625 92.625 A 37.342 37.342 0 0 1 217.198 94.499 A 30.319 30.319 0 0 1 214.725 97.2 A 13.596 13.596 0 0 1 214.252 97.635 Q 213.197 98.559 212.293 98.92 A 2.955 2.955 0 0 1 211.2 99.15 A 1.424 1.424 0 0 1 210.389 98.886 Q 209.948 98.587 209.55 97.95 A 7.451 7.451 0 0 0 209.391 97.706 Q 208.831 96.883 208.454 96.883 A 0.326 0.326 0 0 0 208.35 96.9 A 1.73 1.73 0 0 0 208.339 96.904 Q 207.677 97.175 207.729 97.802 A 1.306 1.306 0 0 0 207.75 97.95 A 4.231 4.231 0 0 0 207.939 98.606 A 5.171 5.171 0 0 0 208.35 99.45 Q 208.8 100.2 209.55 100.725 A 3.262 3.262 0 0 0 210.118 101.047 Z M 91.705 100.379 A 0.315 0.315 0 0 0 91.65 100.2 Q 91.522 100.072 90.518 100.272 A 17.344 17.344 0 0 0 90.15 100.35 Q 89.043 100.596 88.743 100.64 A 0.74 0.74 0 0 1 88.65 100.65 A 17.256 17.256 0 0 1 87.416 100.83 Q 85.555 101.031 84.012 100.748 A 7.658 7.658 0 0 1 80.775 99.375 Q 78.855 97.948 77.743 95.454 A 15.507 15.507 0 0 1 76.8 92.55 A 3.53 3.53 0 0 1 76.758 92.355 Q 76.662 91.849 76.566 90.789 A 58.333 58.333 0 0 1 76.5 90 A 42.939 42.939 0 0 1 76.421 88.693 Q 76.389 87.996 76.371 87.211 A 90.107 90.107 0 0 1 76.35 85.2 Q 76.35 83.686 76.435 81.96 A 94.494 94.494 0 0 1 76.65 78.75 Q 76.95 75.15 77.7 71.25 Q 78.45 67.35 79.725 63.45 A 173.88 173.88 0 0 1 80.367 61.523 A 153.534 153.534 0 0 1 82.35 56.025 A 123.986 123.986 0 0 1 82.529 55.56 Q 83.154 53.947 83.763 52.513 A 74.878 74.878 0 0 1 84.975 49.8 A 96.781 96.781 0 0 1 85.218 49.289 Q 85.95 47.762 86.551 46.655 A 28.185 28.185 0 0 1 87.15 45.6 Q 88.05 44.1 87.6 43.95 A 0.604 0.604 0 0 0 87.591 43.95 Q 87.294 43.955 86.925 44.25 A 5.831 5.831 0 0 1 86.746 44.388 Q 86.477 44.587 86.25 44.7 Q 84.647 45.947 83.176 47.802 A 27.677 27.677 0 0 0 81.225 50.625 A 53.25 53.25 0 0 0 80.652 51.591 A 58.426 58.426 0 0 0 77.1 58.875 Q 75.3 63.3 74.025 67.875 A 77.083 77.083 0 0 0 73.864 68.461 Q 73.313 70.501 72.93 72.374 A 47.099 47.099 0 0 0 72.3 76.2 A 52.135 52.135 0 0 0 72.262 76.482 Q 71.981 78.602 71.841 80.985 A 85.793 85.793 0 0 0 71.7 86.025 A 34.827 34.827 0 0 0 71.886 89.674 A 27.953 27.953 0 0 0 73.275 96 Q 74.85 100.5 78.525 102.75 A 7.082 7.082 0 0 0 80.483 103.569 Q 82.99 104.209 86.452 103.33 A 24.596 24.596 0 0 0 88.8 102.6 Q 89.166 102.478 90.125 101.861 A 34.185 34.185 0 0 0 90.6 101.55 A 8.092 8.092 0 0 0 90.899 101.342 Q 91.705 100.75 91.705 100.379 Z M 190.35 96.9 A 1.537 1.537 0 0 0 190.35 96.886 Q 190.345 96.309 189.9 97.05 A 32.273 32.273 0 0 1 187.052 100.532 A 25.059 25.059 0 0 1 178.425 106.575 Q 172.092 109.208 166.097 109.208 A 27.186 27.186 0 0 1 165.45 109.2 A 56.149 56.149 0 0 1 163.564 109.111 A 62.869 62.869 0 0 1 155.25 108 A 121.113 121.113 0 0 0 154.595 107.871 A 110.862 110.862 0 0 0 144.975 106.425 A 38.962 38.962 0 0 0 140.926 106.209 A 33.263 33.263 0 0 0 135.45 106.65 Q 130.95 107.4 127.35 111 A 7.889 7.889 0 0 0 127.259 111.069 Q 126.8 111.424 127.023 111.381 A 0.512 0.512 0 0 0 127.05 111.375 Q 127.35 111.3 127.65 111.3 A 52.544 52.544 0 0 1 131.908 110.65 Q 135.671 110.228 139.834 110.269 A 82.19 82.19 0 0 1 144.825 110.475 Q 154.35 111.15 164.4 111.3 Q 168 111.3 171.675 111.075 Q 175.35 110.85 178.725 109.575 Q 182.1 108.3 185.025 105.6 A 15.867 15.867 0 0 0 186.375 104.183 Q 187.469 102.89 188.457 101.222 A 32.338 32.338 0 0 0 190.2 97.8 Q 190.308 97.584 190.338 97.214 A 3.862 3.862 0 0 0 190.35 96.9 Z M 150.44 47.32 A 196.755 196.755 0 0 0 154.05 35.1 Q 154.8 32.25 155.175 28.35 Q 155.55 24.45 155.325 20.475 A 44.899 44.899 0 0 0 155.258 19.487 A 40.102 40.102 0 0 0 154.2 12.9 A 24.111 24.111 0 0 0 153.23 9.853 A 17.74 17.74 0 0 0 151.65 6.75 Q 151.35 6.45 151.125 6.075 Q 151.023 5.905 150.906 5.812 A 0.483 0.483 0 0 0 150.6 5.7 A 0.11 0.11 0 0 0 150.554 5.709 Q 150.352 5.8 150.542 6.771 A 10.937 10.937 0 0 0 150.6 7.05 Q 151.088 9.366 150.783 13.86 A 74.514 74.514 0 0 1 150.6 16.05 A 163.144 163.144 0 0 1 150.357 18.372 A 184.055 184.055 0 0 1 148.875 28.8 Q 147.75 35.4 146.55 40.8 A 388.674 388.674 0 0 1 146.399 41.477 Q 145.321 46.287 144.9 47.55 A 63.326 63.326 0 0 0 144.615 48.505 Q 144.373 49.336 144.121 50.28 A 121.527 121.527 0 0 0 143.625 52.2 Q 142.95 54.9 142.425 57.75 Q 141.9 60.6 141.375 63.3 A 64.878 64.878 0 0 0 141.077 64.937 Q 140.947 65.71 140.856 66.39 A 28.43 28.43 0 0 0 140.7 67.8 Q 140.585 68.145 140.514 68.973 A 20.899 20.899 0 0 0 140.475 69.525 A 7.036 7.036 0 0 0 140.472 69.576 Q 140.432 70.348 140.593 70.633 A 0.286 0.286 0 0 0 140.85 70.8 Q 141.101 70.926 141.564 70.156 A 7.533 7.533 0 0 0 141.75 69.825 A 342.023 342.023 0 0 0 141.825 69.684 Q 142.253 68.882 142.428 68.542 A 13.353 13.353 0 0 0 142.5 68.4 A 265.701 265.701 0 0 0 144.136 64.444 A 302.341 302.341 0 0 0 148.875 51.9 A 227.787 227.787 0 0 0 150.44 47.32 Z M 46.2 3.15 Q 52.05 3.9 58.05 4.35 A 189.311 189.311 0 0 0 62.318 4.624 Q 65.681 4.8 68.4 4.8 A 7.632 7.632 0 0 1 68.871 4.813 Q 69.559 4.856 69.787 5.037 A 0.266 0.266 0 0 1 69.9 5.25 Q 69.9 5.812 68.583 6.243 A 7.838 7.838 0 0 1 68.4 6.3 A 39.609 39.609 0 0 1 53.809 9.027 A 43.363 43.363 0 0 1 52.275 9 Q 43.8 8.7 35.1 7.35 A 1438.283 1438.283 0 0 0 24.473 5.873 A 1560.354 1560.354 0 0 0 24.3 5.85 Q 19.444 5.194 13.898 5.686 A 59.005 59.005 0 0 0 12.3 5.85 Q 11.7 6 11.7 5.7 A 0.464 0.464 0 0 1 11.77 5.445 Q 11.824 5.36 11.919 5.297 A 0.738 0.738 0 0 1 12 5.25 Q 12.281 5.109 12.563 4.837 A 3.315 3.315 0 0 0 12.6 4.8 A 13.577 13.577 0 0 1 15.978 3.013 Q 17.77 2.352 19.95 2.025 A 56.273 56.273 0 0 1 27.811 1.42 Q 28.563 1.413 29.325 1.425 Q 34.2 1.5 38.7 2.1 Q 43.2 2.7 46.2 3.15 Z M 123.173 56.92 A 10.904 10.904 0 0 0 121.65 53.1 A 5.61 5.61 0 0 1 121.469 52.911 Q 121.387 52.821 121.321 52.739 A 2.297 2.297 0 0 1 121.2 52.575 Q 121.05 52.35 120.9 52.35 Q 120.652 52.35 120.609 53.07 A 5.608 5.608 0 0 0 120.6 53.4 A 46.246 46.246 0 0 1 120.41 57.65 A 36.957 36.957 0 0 1 119.25 64.125 Q 117.9 69 116.25 73.95 Q 113.55 81.6 111.225 89.1 Q 108.9 96.6 108.9 104.7 Q 108.9 104.925 108.942 105.277 A 11.181 11.181 0 0 0 108.975 105.525 A 1.167 1.167 0 0 0 109.005 105.669 Q 109.053 105.844 109.152 105.967 A 0.734 0.734 0 0 0 109.5 106.2 Q 109.754 106.327 110.222 105.382 A 10.194 10.194 0 0 0 110.4 105 A 244.296 244.296 0 0 0 111.475 102.517 Q 112.035 101.206 112.638 99.756 A 449.704 449.704 0 0 0 114.15 96.075 Q 116.25 90.9 117.75 85.95 A 128.864 128.864 0 0 1 118.139 84.656 Q 118.607 83.123 119.255 81.112 A 439.246 439.246 0 0 1 119.925 79.05 A 74.695 74.695 0 0 0 120.274 77.955 A 82.511 82.511 0 0 0 122.325 69.9 A 62.363 62.363 0 0 0 122.674 68.036 A 54.729 54.729 0 0 0 123.45 60.6 A 19.067 19.067 0 0 0 123.461 59.965 Q 123.461 58.34 123.173 56.92 Z M 2.7 15.15 L 2.55 15.15 Q 2.55 14.55 3.15 13.95 A 10.769 10.769 0 0 1 5.328 11.846 A 14.395 14.395 0 0 1 7.275 10.65 Q 9.9 9.3 12.75 8.55 Q 15.6 7.8 18.525 7.65 Q 20.475 7.55 22.125 7.65 A 21.998 21.998 0 0 1 23.7 7.8 Q 30 8.7 36.525 10.05 Q 43.05 11.4 49.2 13.05 A 1.018 1.018 0 0 0 49.407 13.204 Q 49.644 13.342 50.044 13.462 A 6.998 6.998 0 0 0 50.475 13.575 A 3.473 3.473 0 0 1 50.819 13.671 Q 51.154 13.786 51.311 13.942 A 0.424 0.424 0 0 1 51.45 14.25 Q 51.45 14.517 50.737 14.665 A 4.794 4.794 0 0 1 50.55 14.7 Q 49.65 14.85 49.2 15.15 A 11.025 11.025 0 0 1 48.093 15.333 Q 47.498 15.402 46.81 15.431 A 24.017 24.017 0 0 1 45.825 15.45 A 118.733 118.733 0 0 1 42.703 15.408 A 132.199 132.199 0 0 1 41.625 15.375 Q 39.45 15.3 37.35 15.15 A 39.212 39.212 0 0 1 35.859 15.016 Q 35.127 14.936 34.486 14.832 A 20.05 20.05 0 0 1 33.75 14.7 A 33.265 33.265 0 0 0 33.248 14.633 Q 32.031 14.479 29.093 14.157 A 908.542 908.542 0 0 0 28.575 14.1 Q 24.45 13.65 19.5 13.5 Q 14.55 13.35 9.975 13.575 A 35.369 35.369 0 0 0 7.852 13.739 Q 4.913 14.062 3.45 14.85 A 10.603 10.603 0 0 1 3.241 14.952 Q 2.822 15.15 2.7 15.15 Z M 117.6 63.9 Q 115.8 69.45 113.325 74.55 Q 110.85 79.65 108.15 84.75 A 1.702 1.702 0 0 0 108.004 84.921 Q 107.719 85.296 107.25 86.175 A 4.75 4.75 0 0 1 107.076 86.477 Q 106.583 87.256 106.2 87 A 0.179 0.179 0 0 1 106.038 86.894 Q 105.937 86.71 105.967 86.209 A 4.947 4.947 0 0 1 105.975 86.1 A 35.878 35.878 0 0 0 106.008 85.678 Q 106.037 85.272 106.046 84.986 A 7.512 7.512 0 0 0 106.05 84.75 A 16.623 16.623 0 0 1 106.148 84.084 Q 106.274 83.33 106.5 82.297 A 70.845 70.845 0 0 1 106.725 81.3 A 125.632 125.632 0 0 1 107.518 78.1 A 146.82 146.82 0 0 1 107.925 76.575 A 307.712 307.712 0 0 1 109.191 72.066 A 282.167 282.167 0 0 1 109.275 71.775 A 179.205 179.205 0 0 1 109.598 70.673 Q 109.918 69.6 110.177 68.786 A 54.009 54.009 0 0 1 110.4 68.1 A 103.872 103.872 0 0 0 112.175 61.816 Q 112.951 58.671 113.399 55.854 A 55.302 55.302 0 0 0 113.7 53.7 Q 114.184 49.633 113.668 46.379 A 16.769 16.769 0 0 0 112.8 43.05 A 3.862 3.862 0 0 1 112.742 42.895 Q 112.533 42.3 112.8 42.3 Q 113.1 42.3 113.4 42.6 L 113.85 43.05 A 12.351 12.351 0 0 1 115.516 45.383 A 16.711 16.711 0 0 1 116.55 47.625 Q 117.6 50.4 118.05 53.325 Q 118.5 56.25 118.35 59.1 A 27.494 27.494 0 0 1 118.174 61.111 Q 117.975 62.681 117.6 63.9 Z M 166.95 103.95 Q 166.95 104.25 166.35 104.4 Q 165.876 104.518 165.589 104.543 A 1.622 1.622 0 0 1 165.45 104.55 Q 163.2 105 159.375 105.15 A 63.933 63.933 0 0 1 157.201 105.199 Q 154.631 105.212 152.4 105 Q 151.673 105 149.112 104.788 A 228.157 228.157 0 0 1 148.95 104.775 A 46.95 46.95 0 0 0 146.809 104.648 Q 145.022 104.582 142.945 104.621 A 87.003 87.003 0 0 0 142.725 104.625 Q 139.2 104.7 135.6 105.45 Q 132 106.2 129.45 108 Q 128.923 108.527 128.628 108.244 A 0.557 0.557 0 0 1 128.55 108.15 A 0.418 0.418 0 0 1 128.561 108.067 Q 128.59 107.929 128.698 107.659 A 8.834 8.834 0 0 1 128.775 107.475 A 6.51 6.51 0 0 1 128.876 107.25 Q 129.024 106.939 129.133 106.818 A 0.48 0.48 0 0 1 129.15 106.8 Q 131.25 103.5 135.675 101.775 Q 140.1 100.05 144.6 99.6 A 33.272 33.272 0 0 1 147.706 99.458 Q 151.153 99.458 154.95 100.125 A 92.679 92.679 0 0 1 162.938 101.883 A 81.578 81.578 0 0 1 165.45 102.6 A 0.264 0.264 0 0 1 165.533 102.619 Q 165.722 102.686 166.198 102.999 A 14.672 14.672 0 0 1 166.275 103.05 A 2.739 2.739 0 0 1 166.554 103.261 Q 166.849 103.518 166.924 103.775 A 0.622 0.622 0 0 1 166.95 103.95 Z M 28.65 100.65 Q 29.1 103.2 29.775 105.75 Q 30.45 108.3 31.5 110.7 A 7.387 7.387 0 0 1 31.617 110.943 Q 32.044 111.882 31.665 111.9 A 0.319 0.319 0 0 1 31.65 111.9 Q 31.35 111.9 30.75 111.6 Q 30.45 111.45 30.3 111.15 Q 28.628 109.221 27.563 107.512 A 19.129 19.129 0 0 1 27.225 106.95 Q 26.1 105 25.35 100.65 A 19.093 19.093 0 0 1 25.163 99.348 Q 25.093 98.716 25.046 97.991 A 43.536 43.536 0 0 1 24.975 96.45 Q 24.9 93.9 25.05 91.5 A 49.233 49.233 0 0 1 25.184 89.805 Q 25.313 88.481 25.5 87.45 A 7.257 7.257 0 0 1 25.622 86.895 Q 25.911 85.8 26.4 85.8 Q 26.542 85.8 26.75 86.467 A 7.867 7.867 0 0 1 26.775 86.55 A 10.72 10.72 0 0 1 26.975 87.329 Q 27.061 87.717 27.13 88.15 A 17.594 17.594 0 0 1 27.15 88.275 L 27.45 90.225 Q 27.6 91.2 27.6 91.5 A 305.212 305.212 0 0 1 27.881 93.975 A 252.301 252.301 0 0 1 28.125 96.3 A 105.087 105.087 0 0 0 28.576 100.123 A 95.429 95.429 0 0 0 28.65 100.65 Z M 72.15 6.75 A 33.002 33.002 0 0 0 76.431 2.321 A 29.158 29.158 0 0 0 77.7 0.6 A 2.579 2.579 0 0 1 77.827 0.374 Q 78.063 0 78.3 0 A 0.074 0.074 0 0 1 78.359 0.052 Q 78.433 0.2 78.447 0.769 A 11.73 11.73 0 0 1 78.45 1.05 A 4.076 4.076 0 0 1 78.421 1.546 Q 78.389 1.809 78.32 2.036 A 2.423 2.423 0 0 1 78.3 2.1 A 29.6 29.6 0 0 1 77.91 3.591 Q 77.688 4.355 77.448 4.995 A 12.09 12.09 0 0 1 76.95 6.15 A 5.061 5.061 0 0 1 76.362 7.041 Q 75.662 7.913 74.389 8.948 A 27.576 27.576 0 0 1 73.35 9.75 A 8.786 8.786 0 0 1 72.394 10.455 Q 71.887 10.782 71.274 11.099 A 18.402 18.402 0 0 1 70.5 11.475 Q 68.7 12.3 67.05 12.9 A 14.195 14.195 0 0 1 65.865 13.276 Q 64.922 13.528 64.125 13.575 Q 63.163 13.632 62.841 13.304 A 0.544 0.544 0 0 1 62.7 13.05 A 0.185 0.185 0 0 1 62.725 12.968 Q 62.786 12.85 62.999 12.656 A 4.674 4.674 0 0 1 63.15 12.525 A 9.747 9.747 0 0 1 63.519 12.233 Q 63.853 11.981 64.275 11.7 A 57.375 57.375 0 0 1 64.931 11.269 A 46.742 46.742 0 0 1 65.55 10.875 A 25.624 25.624 0 0 1 65.831 10.702 Q 66.216 10.468 66.439 10.356 A 3.462 3.462 0 0 1 66.45 10.35 Q 67.95 9.6 69.375 8.7 Q 70.8 7.8 72.15 6.75 Z M 189.212 92.467 A 0.947 0.947 0 0 0 189.15 92.55 Q 187.95 94.2 186.525 95.4 A 46.26 46.26 0 0 0 185.827 96 A 40.226 40.226 0 0 0 183.9 97.8 A 24.175 24.175 0 0 1 183.3 98.236 A 21.222 21.222 0 0 1 181.5 99.375 Q 180.3 100.05 179.1 100.8 A 31.526 31.526 0 0 0 179 100.85 Q 178.554 101.075 177.736 101.503 A 295.21 295.21 0 0 0 177.075 101.85 Q 175.786 102.529 175.786 102.962 A 0.278 0.278 0 0 0 175.8 103.05 A 0.483 0.483 0 0 0 175.939 103.407 Q 176.11 103.578 176.493 103.629 A 2.746 2.746 0 0 0 176.85 103.65 Q 177.449 103.65 178.145 103.552 A 14.168 14.168 0 0 0 179.25 103.35 A 16.258 16.258 0 0 0 180.46 103.03 A 20.54 20.54 0 0 0 182.1 102.45 A 16.86 16.86 0 0 0 182.193 102.412 Q 183.633 101.827 184.65 101.1 A 15.573 15.573 0 0 0 185.922 100.133 Q 186.565 99.585 187.035 99.037 A 6.117 6.117 0 0 0 187.875 97.8 A 36.074 36.074 0 0 0 188.109 97.324 Q 188.461 96.592 188.827 95.754 A 65.126 65.126 0 0 0 189.6 93.9 A 3.052 3.052 0 0 0 189.643 93.787 Q 189.785 93.385 189.77 93.05 A 1.213 1.213 0 0 0 189.675 92.625 A 1.148 1.148 0 0 0 189.631 92.533 Q 189.445 92.188 189.212 92.467 Z M 111.23 111.994 A 5.274 5.274 0 0 0 111 111.75 A 14.286 14.286 0 0 1 110.373 111.18 A 11.933 11.933 0 0 1 109.2 109.875 A 8.803 8.803 0 0 1 108.78 109.275 Q 108.509 108.856 108.239 108.349 A 19.49 19.49 0 0 1 107.7 107.25 A 45.842 45.842 0 0 1 107.48 106.69 A 40.782 40.782 0 0 1 106.65 104.325 Q 106.2 102.9 105.9 101.25 A 34.912 34.912 0 0 0 105.745 100.584 A 30.269 30.269 0 0 0 105.225 98.7 A 10.733 10.733 0 0 0 105.11 98.351 Q 104.888 97.717 104.694 97.476 A 0.459 0.459 0 0 0 104.55 97.35 A 0.43 0.43 0 0 0 104.535 97.345 Q 104.095 97.216 103.8 98.175 A 5.596 5.596 0 0 0 103.655 98.763 Q 103.578 99.167 103.539 99.64 A 12.363 12.363 0 0 0 103.5 100.65 A 32.842 32.842 0 0 0 103.525 101.906 A 40.763 40.763 0 0 0 103.65 103.875 A 16.255 16.255 0 0 0 103.705 104.409 Q 103.785 105.075 103.915 105.655 A 8.616 8.616 0 0 0 104.25 106.8 Q 104.715 108.272 105.42 109.284 A 5.289 5.289 0 0 0 106.95 110.775 A 58.636 58.636 0 0 0 108.067 111.457 Q 108.593 111.769 109.054 112.025 A 23.707 23.707 0 0 0 109.95 112.5 A 1.813 1.813 0 0 0 110.093 112.563 Q 110.297 112.644 110.611 112.725 A 9.565 9.565 0 0 0 110.925 112.8 Q 111.6 112.95 111.6 112.65 A 0.35 0.35 0 0 0 111.595 112.59 Q 111.555 112.363 111.23 111.994 Z" vector-effect="non-scaling-stroke"/></g></svg>